<?xml version="1.0" encoding="utf-8"?>
<!-- Generator: Adobe Illustrator 18.0.0, SVG Export Plug-In . SVG Version: 6.00 Build 0)  -->
<!DOCTYPE svg PUBLIC "-//W3C//DTD SVG 1.1//EN" "http://www.w3.org/Graphics/SVG/1.1/DTD/svg11.dtd">
<svg version="1.1" id="Layer_1" xmlns="http://www.w3.org/2000/svg" xmlns:xlink="http://www.w3.org/1999/xlink" x="0px" y="0px"
	 viewBox="0 0 500 520" enable-background="new 0 0 500 520" xml:space="preserve">
<g>
	<g>
		<path fill="#FFFFFF" d="M444.2,269.8c0,47.9-17.5,91.9-46.4,125.8h67c0,0,35.2-58.4,35.2-125.8c0-129.1-97.9-235.4-223.5-248.6
			v56.2C371.1,90.4,444.2,171.7,444.2,269.8"/>
	</g>
	<g>
		<path fill="#FFFFFF" d="M73.4,446.7v-96.3c-11.2-24.6-17.6-51.9-17.6-80.6c0-28.7,6.4-56,17.6-80.6V92.9
			C28.1,138.2,0,200.7,0,269.8C0,338.9,28.1,401.5,73.4,446.7"/>
	</g>
	<g>
		<polygon fill="#FFFFFF" points="72.3,519.8 431.7,519.7 489.8,435.1 229.8,435.1 229.8,0.2 72.3,0.2 115.7,52.8 115.7,467.4 		"/>
	</g>
</g>
</svg>
